<?xml version="1.0" encoding="UTF-8"?>
<svg id="Capa_1" data-name="Capa 1" xmlns="http://www.w3.org/2000/svg" version="1.1" viewBox="0 0 678 281">
  <defs>
    <style>
      .cls-1, .cls-2, .cls-3, .cls-4, .cls-5, .cls-6, .cls-7, .cls-8 {
        stroke-width: 0px;
      }

      .cls-1, .cls-2, .cls-3, .cls-4, .cls-6, .cls-7, .cls-8 {
        fill-rule: evenodd;
      }

      .cls-1, .cls-5 {
        fill: #fff;
      }

      .cls-2 {
        fill: #fce90a;
      }

      .cls-3 {
        fill: #56c2e7;
      }

      .cls-4 {
        fill: #31a66a;
      }

      .cls-6 {
        fill: #a00d59;
      }

      .cls-7 {
        fill: #e6511e;
      }

      .cls-8 {
        fill: #e1001a;
      }
    </style>
  </defs>
  <g>
    <g>
      <path class="cls-8" d="M344.5,93.8c3-6.8.7-16.3-3.1-20.9-2.7-3.3-10.8-4.1-21-2.9-6,24.3-25.3,59.5-45.8,59.4-.1,0-.2,0-.3,0,0,0,0,0,0,0-1.3,0-2.6-.1-4-.3,25.9,10.6,78.2-3.2,81-15.3,1.4-5.8-.8-15.4-6.6-20.1Z"/>
      <path class="cls-2" d="M320.4,70c2.4-10,2.6-18.2-.3-21.3-4.1-4.4-13.2-7.8-20.3-5.7-4-6.3-13.1-9.7-19-9-4.5.5-10.1,7.7-15,17.9,6.9,7.6,14,17.7,19.2,28.2,11.5-5.2,24.6-8.8,35.3-10Z"/>
      <path class="cls-7" d="M285.5,125.6h0s0,0,0,0c0,0,0,0,0,0h0c-3.3,2.5-7,3.6-10.9,3.7,20.6,0,39.9-35.1,45.8-59.4-10.7,1.3-23.8,4.8-35.3,10,8.8,17.7,12.3,36.5.5,45.6Z"/>
      <path class="cls-3" d="M268.2,128.3h0s0,0,0,0c-4-1.5-7-4.2-9.2-7.7-.5-.7-.9-1.4-1.2-2.2,0,0,0-.2-.1-.3,0-.2-.2-.4-.2-.5-7.4-16.6-.7-46.5,8.5-65.7-7.6-8.3-15-13.5-19.5-12.7-5.9,1.1-13.7,7-15.6,14.2-7.4,0-15.1,6-17.8,11.3-5.8,11.7,29.7,60,57.2,64.4-.6-.3-1.3-.5-1.9-.8,0,0,0,0,0,0Z"/>
      <path class="cls-4" d="M257.3,117.5c-.4-.9-.7-1.8-.9-2.8h0s0,0,0,0c0,0,0,0,0,0h0c-3.4-14.4,10.8-26.6,28.6-34.7-5.2-10.5-12.3-20.6-19.2-28.2-9.2,19.2-15.9,49.1-8.5,65.7Z"/>
      <path class="cls-6" d="M285.4,125.9s0,0,0,0c0,0,0,0,0,0h0c11.9-9.2,8.4-28-.5-45.8-17.9,8.1-32.1,20.4-28.8,34.8h0s0,0,0,0c0,0,0,0,0,0h0c.2,1,.5,1.9.9,2.8,0,.2.2.4.2.5,0,0,0,.2.1.3.4.8.8,1.5,1.2,2.2,2.2,3.3,5.3,5.8,9.3,7.7,0,0,0,0,0,0h0s0,0,0,0c0,0,0,0,0,0,0,0,0,0,0,0h0c2,.7,3.9,1.1,5.9,1.1,0,0,0,0,0,0,.1,0,.2,0,.3,0,3.9,0,7.7-1.3,11-3.8h0Z"/>
    </g>
    <path class="cls-1" d="M72.4,122.3h20.7c1.4,0,2.6.5,3.5,1.5.9.9,1.4,2.1,1.4,3.5s-.1,1.3-.4,1.9c-.2.6-.6,1.1-1,1.6-.4.4-1,.8-1.6,1-.6.2-1.2.4-1.9.3h-26.7c-1.2-.3-2.1-.9-2.9-1.8-.7-.9-1.1-1.9-1.1-3.1v-54c0-.7.1-1.3.4-1.9.2-.6.6-1.1,1-1.6.4-.4,1-.8,1.6-1,.6-.2,1.2-.4,2-.4s1.3.1,1.9.4c.6.2,1.1.6,1.6,1,.4.4.8,1,1.1,1.6.3.6.4,1.2.4,1.9v49h0ZM141.2,114.4h-25.3l-6.1,14.8c-.3.7-.6,1.2-1.1,1.7-.5.4-1,.8-1.6,1-.6.2-1.2.3-1.9.3-.7,0-1.4-.1-2-.4-1.3-.6-2.1-1.5-2.5-2.7-.4-1.2-.3-2.5.2-3.8l23.4-53.8c.4-1,1-1.7,1.8-2.2.8-.5,1.7-.8,2.7-.8s1.9.2,2.7.8,1.4,1.3,1.8,2.2l23.1,53.9c.6,1.3.6,2.6.2,3.8-.4,1.2-1.2,2.2-2.5,2.7-.6.3-1.3.4-1.9.5-.7,0-1.3,0-1.9-.3-.6-.2-1.1-.6-1.6-1-.5-.4-.9-1-1.2-1.6l-6.2-14.8h0ZM120.1,104.4h17l-8.5-20.3-8.4,20.3h0ZM183,104.7c1.4.4,2.8.7,4.2,1.1,1.4.4,2.7.9,3.8,1.6,1.1.6,2.1,1.5,2.8,2.5.7,1,1.1,2.3,1.1,3.8s-.3,2.8-1,3.9c-.7,1.1-1.6,2.1-2.7,2.9-1.1.8-2.4,1.4-3.8,1.8-1.4.4-2.9.6-4.3.6-3,0-5.6-.6-7.9-1.8-2.3-1.2-4.1-2.9-5.5-5.1-1.1-1.4-2.2-2.3-3.3-2.7s-2.2-.3-3.5.4c-.5.3-1,.7-1.4,1.1-.4.4-.7.9-.9,1.5-.2.6-.3,1.2-.2,1.9,0,.7.2,1.5.6,2.3.8,1.7,1.9,3.3,3.3,4.8,1.4,1.5,3.1,2.8,5,3.9,1.9,1.1,4,2,6.3,2.7,2.3.6,4.7,1,7.2,1s6-.5,8.7-1.5c2.7-1,5.1-2.4,7.1-4.1,2-1.7,3.6-3.8,4.7-6.2,1.1-2.4,1.7-5,1.7-7.8s-.5-5.2-1.6-7.2c-1.1-2-2.5-3.7-4.2-5.1-1.7-1.4-3.7-2.5-6-3.4-2.2-.9-4.5-1.7-6.9-2.3-2-.4-3.8-.9-5.6-1.3-1.7-.4-3.3-1-4.6-1.6-1.3-.6-2.4-1.4-3.1-2.4-.8-1-1.2-2.2-1.2-3.7s.3-2.5.9-3.5c.6-1,1.4-1.9,2.4-2.6,1-.7,2.2-1.3,3.5-1.7,1.3-.4,2.8-.6,4.3-.6s2.6,0,3.6.3c1,.2,2,.5,2.9.9.9.4,1.8.9,2.6,1.5.8.6,1.7,1.3,2.6,2.2.5.4,1.1.7,1.7.8.6.1,1.2.2,1.7.1.5,0,1.1-.2,1.5-.4.5-.2.9-.5,1.2-.8.3-.3.6-.6.8-1,.2-.4.4-.8.5-1.3.1-.5.1-.9,0-1.4,0-.5-.2-.9-.5-1.4-.9-1.5-2-2.9-3.4-4.1-1.4-1.2-2.9-2.2-4.5-2.9-1.7-.8-3.4-1.4-5.3-1.8s-3.8-.6-5.8-.6-5.3.4-7.8,1.3c-2.5.9-4.7,2.1-6.7,3.8-1.9,1.6-3.5,3.6-4.7,5.9-1.2,2.3-1.7,4.8-1.7,7.5s.5,5.1,1.6,7.1c1.1,2,2.6,3.8,4.5,5.3,1.9,1.5,4.2,2.7,6.8,3.7,2.6,1,5.4,1.8,8.4,2.3Z"/>
    <path class="cls-1" d="M67.5,150.8c-.9,0-1.7.1-2.3.4-.6.3-1.1.7-1.5,1.1-.4.5-.7,1-.9,1.5-.2.6-.3,1.1-.3,1.6v54.2c0,.7.1,1.3.4,1.9.2.6.6,1.1,1,1.5.4.4,1,.8,1.6,1,.6.2,1.2.4,2,.4s1.3-.1,1.9-.4c.6-.2,1.1-.6,1.6-1,.4-.4.8-.9,1.1-1.5.3-.6.4-1.3.4-2v-22.3h14.7c1.4,0,2.6-.4,3.5-1.3.9-.9,1.4-2,1.4-3.4s-.5-2.6-1.4-3.5c-.9-.9-2.1-1.4-3.5-1.4h-14.7v-17h21.5c1.4,0,2.6-.5,3.5-1.4.9-.9,1.4-2.1,1.4-3.5s-.1-1.3-.4-1.9c-.2-.6-.6-1.1-1-1.6-.4-.4-1-.8-1.5-1.1-.6-.3-1.2-.4-1.9-.4h-26.5ZM116.3,204.8h20.7c1.4,0,2.6.5,3.5,1.5.9.9,1.4,2.1,1.4,3.5s-.1,1.3-.4,1.9c-.2.6-.6,1.1-1,1.6-.4.4-1,.8-1.6,1-.6.2-1.2.4-1.9.3h-26.7c-1.2-.3-2.1-.9-2.9-1.8-.7-.9-1.1-1.9-1.1-3.1v-54c0-.7.1-1.3.4-1.9.2-.6.6-1.1,1-1.6.4-.4,1-.8,1.6-1,.6-.2,1.2-.4,2-.4s1.3.1,1.9.4c.6.2,1.1.6,1.6,1,.4.4.8,1,1.1,1.6.3.6.4,1.2.4,1.9v49h0ZM172.2,150.3c-3,0-5.9.4-8.6,1.2-2.8.8-5.3,1.9-7.7,3.3-2.4,1.4-4.6,3.1-6.5,5.1-2,2-3.6,4.2-5,6.6-1.4,2.4-2.5,5-3.2,7.8-.8,2.8-1.1,5.6-1.1,8.6,0,4.5.8,8.7,2.5,12.6,1.7,3.9,4,7.4,6.9,10.3,2.9,2.9,6.3,5.3,10.3,7,3.9,1.7,8.1,2.5,12.6,2.5s8.7-.8,12.7-2.5c3.9-1.7,7.4-4,10.3-7,2.9-2.9,5.3-6.4,7-10.3,1.7-3.9,2.6-8.1,2.6-12.6s-.4-5.9-1.2-8.6c-.8-2.8-1.9-5.4-3.3-7.8-1.4-2.4-3.1-4.6-5.1-6.6-2-2-4.2-3.7-6.6-5.1-2.4-1.4-5-2.5-7.7-3.3-2.8-.8-5.7-1.2-8.7-1.2h0ZM172.2,160.4c3.1,0,6.1.6,8.8,1.8,2.7,1.2,5.1,2.8,7.2,4.8,2,2,3.6,4.4,4.8,7.1,1.2,2.7,1.7,5.6,1.7,8.7s-.6,6.1-1.7,8.8c-1.2,2.7-2.8,5.1-4.8,7.1-2,2-4.4,3.6-7.2,4.8-2.7,1.2-5.7,1.7-8.8,1.7s-6.1-.6-8.8-1.7c-2.7-1.2-5.1-2.8-7.1-4.8-2-2-3.6-4.4-4.8-7.1-1.2-2.7-1.7-5.7-1.7-8.8s.6-6,1.7-8.7c1.2-2.7,2.8-5.1,4.8-7.1,2-2,4.4-3.6,7.1-4.8,2.7-1.2,5.7-1.8,8.8-1.8h0ZM254.3,169.7c0,2.1-.3,4-.9,5.9-.6,1.9-1.5,3.6-2.6,5.1-1.1,1.5-2.5,2.9-4,4-1.5,1.1-3.2,2-5.1,2.7l11.9,20c.4.6.6,1.2.6,1.9,0,.7,0,1.3-.2,1.9-.2.6-.5,1.2-.9,1.7-.4.5-.9.9-1.5,1.2-.6.3-1.2.5-1.8.6-.6,0-1.3,0-1.9-.2-.6-.2-1.2-.4-1.7-.8-.5-.4-.9-.9-1.3-1.5l-13.9-23.6h-7.6v21.3c0,1.4-.5,2.5-1.4,3.5-1,.9-2.2,1.4-3.6,1.4s-2.6-.5-3.5-1.4c-.9-.9-1.4-2.1-1.4-3.5v-54.1c0-1.4.5-2.6,1.4-3.5.9-.9,2.1-1.4,3.5-1.4h16.7c2.7,0,5.2.5,7.5,1.5,2.3,1,4.4,2.3,6.2,4,1.7,1.7,3.1,3.7,4.1,6,1,2.3,1.5,4.8,1.5,7.4h0ZM223.3,160.7v17.9h11.8c1.3,0,2.5-.2,3.6-.7,1.1-.5,2.1-1.2,3-2,.8-.8,1.5-1.8,2-2.9.5-1.1.7-2.2.7-3.4s-.2-2.4-.7-3.4c-.5-1.1-1.2-2-2-2.8-.8-.8-1.8-1.4-3-1.9-1.1-.4-2.3-.7-3.6-.7h-11.7ZM269.5,214.6c-1.3,0-2.4-.6-3.3-1.5-.9-.9-1.3-2-1.3-3.4v-53.9c0-.7.1-1.3.4-1.9.2-.6.6-1.1,1-1.6.4-.4,1-.8,1.6-1.1.6-.3,1.3-.4,2-.4h26.7c.7,0,1.3.1,1.9.4.6.3,1.1.6,1.5,1.1.4.4.8,1,1,1.6.2.6.4,1.2.4,1.9,0,1.4-.5,2.6-1.4,3.5-.9.9-2.1,1.4-3.5,1.4h-21.7v17.2h15.7c.7,0,1.3,0,1.9.3.6.2,1.1.6,1.6,1,.4.4.8,1,1,1.6.2.6.4,1.2.4,1.9,0,1.4-.5,2.5-1.4,3.4-.9.9-2.1,1.3-3.5,1.3h-15.7v17.2h21.7c1.4,0,2.6.5,3.5,1.4.9,1,1.4,2.1,1.4,3.5s-.1,1.3-.4,1.9c-.2.6-.6,1.1-1,1.6-.4.4-1,.8-1.5,1-.6.2-1.2.4-1.9.3h-27.1ZM329.6,187.2c1.4.4,2.8.7,4.2,1.1,1.4.4,2.7.9,3.8,1.6,1.1.6,2.1,1.5,2.8,2.5.7,1,1.1,2.3,1.1,3.8s-.3,2.8-1,3.9c-.7,1.1-1.6,2.1-2.7,2.9-1.1.8-2.4,1.4-3.8,1.8-1.4.4-2.9.6-4.3.6-3,0-5.6-.6-7.9-1.8-2.3-1.2-4.1-2.9-5.5-5.1-1.1-1.4-2.2-2.3-3.3-2.7-1.1-.4-2.2-.3-3.5.4-.5.3-1,.7-1.4,1.1-.4.4-.7.9-.9,1.5-.2.6-.3,1.2-.2,1.9,0,.7.2,1.5.6,2.3.8,1.7,1.9,3.3,3.3,4.8,1.4,1.5,3.1,2.8,5,3.9,1.9,1.1,4,2,6.3,2.7,2.3.6,4.7,1,7.2,1s6-.5,8.7-1.5c2.7-1,5.1-2.4,7.1-4.1,2-1.7,3.6-3.8,4.7-6.2,1.1-2.4,1.7-5,1.7-7.8s-.5-5.2-1.6-7.2c-1.1-2-2.5-3.7-4.2-5.1-1.7-1.4-3.7-2.5-6-3.4-2.2-.9-4.5-1.7-6.9-2.3-2-.4-3.8-.9-5.6-1.3-1.7-.4-3.3-1-4.6-1.6-1.3-.6-2.4-1.4-3.1-2.4-.8-1-1.2-2.2-1.2-3.7s.3-2.5.9-3.5c.6-1,1.4-1.9,2.4-2.6,1-.7,2.2-1.3,3.5-1.7,1.3-.4,2.8-.6,4.3-.6s2.6,0,3.6.3c1,.2,2,.5,2.9.9s1.8.9,2.6,1.5c.8.6,1.7,1.3,2.6,2.2.5.4,1.1.7,1.7.8.6.1,1.2.2,1.7.1.5,0,1.1-.2,1.5-.4.5-.2.9-.5,1.2-.8.3-.3.6-.6.8-1,.2-.4.4-.8.5-1.3.1-.5.1-.9,0-1.4,0-.5-.2-.9-.5-1.4-.9-1.5-2-2.9-3.4-4.1-1.4-1.2-2.9-2.2-4.5-2.9-1.7-.8-3.4-1.4-5.3-1.8-1.9-.4-3.8-.6-5.8-.6s-5.3.4-7.8,1.3c-2.5.9-4.7,2.1-6.7,3.8-1.9,1.6-3.5,3.6-4.7,5.9-1.2,2.3-1.7,4.8-1.7,7.5s.5,5.1,1.6,7.1c1.1,2,2.6,3.8,4.5,5.3,1.9,1.5,4.2,2.7,6.8,3.7,2.6,1,5.4,1.8,8.4,2.3Z"/>
    <g>
      <path class="cls-5" d="M120.4,238.4v8.4h-1.3l-.9-2.2c-1,1.6-2.4,2.5-4.4,2.5s-3.9-.8-5-2.5c-1.1-1.7-1.7-3.7-1.7-5.9s.6-4.4,1.8-6,3-2.5,5.2-2.5,3,.5,4.1,1.4c1.1,1,1.7,2.1,2,3.6l-2.6.5c-.5-2-1.6-3-3.4-3s-2.1.5-2.8,1.4c-.7.9-1.1,2.4-1.1,4.4,0,4.1,1.3,6.2,3.9,6.2s1.8-.3,2.5-1c.7-.7,1-1.6,1-2.8h-3.4v-2.4h6.2Z"/>
      <path class="cls-5" d="M130.2,247.1c-2.2,0-3.9-.8-5.1-2.5-1.2-1.6-1.8-3.7-1.8-6.1s.6-4.4,1.9-6,3-2.4,5.1-2.4,3.8.8,5.1,2.4c1.2,1.6,1.9,3.6,1.9,6s-.6,4.6-1.9,6.1c-1.3,1.6-3,2.3-5.1,2.3ZM130.3,244.7c1.1,0,2-.4,2.7-1.3.7-.9,1.1-2.5,1.1-4.8s-.3-3.4-.9-4.4-1.6-1.6-2.8-1.6c-2.5,0-3.8,2-3.8,6.1s.3,3.5,1,4.5c.6,1,1.6,1.5,2.8,1.5Z"/>
      <path class="cls-5" d="M140.4,246.8v-16.4h6.4c1.1,0,2,.1,2.7.3.7.2,1.3.7,1.9,1.4.5.7.8,1.6.8,2.5s-.3,1.7-.8,2.4c-.5.7-1.3,1.1-2.2,1.3,1.2.2,2,.7,2.6,1.4.6.7.9,1.6.9,2.6s-.4,2.3-1.2,3.2c-.8.9-2.1,1.3-3.8,1.3h-7.2ZM143.2,237.3h3.6c.7,0,1.3-.2,1.7-.7.4-.4.6-1,.6-1.7s-.2-1.3-.7-1.7c-.5-.4-1.1-.5-1.7-.5h-3.5v4.5ZM143.2,244.4h3.8c.8,0,1.4-.2,1.9-.6.5-.4.7-1,.7-1.7s-.2-1.3-.7-1.7c-.5-.4-1.1-.7-1.9-.7h-3.8v4.7Z"/>
      <path class="cls-5" d="M158.7,246.8h-3v-16.4h3v16.4Z"/>
      <path class="cls-5" d="M173.4,246.8h-10.7v-16.4h10.6v2.4h-7.6v4.4h6.1v2.4h-6.1v4.6h7.7v2.5Z"/>
      <path class="cls-5" d="M189.2,246.8h-3.1l-2.5-6.7h-4.2v6.7h-3v-16.4h7.1c2,0,3.4.4,4.4,1.3.9.9,1.4,2,1.4,3.5,0,2.1-1,3.6-3,4.3l2.9,7.2ZM179.3,237.7h3.7c1.1,0,1.9-.2,2.4-.7.5-.4.8-1.1.8-1.9s-.3-1.3-.8-1.7c-.5-.4-1.2-.7-2.2-.7h-3.9v4.9Z"/>
      <path class="cls-5" d="M205,246.8h-2.9l-6.2-10.5c0-.2-.3-.4-.5-.8,0-.2-.2-.4-.4-.8v12h-2.4v-16.4h3.3l5.7,9.7c0,0,.4.7,1,1.8v-11.4h2.3v16.4Z"/>
      <path class="cls-5" d="M215,247.1c-2.2,0-3.9-.8-5.1-2.5-1.2-1.6-1.8-3.7-1.8-6.1s.6-4.4,1.9-6,3-2.4,5.1-2.4,3.8.8,5.1,2.4,1.9,3.6,1.9,6-.6,4.6-1.9,6.1c-1.3,1.6-3,2.3-5.1,2.3ZM215.1,244.7c1.1,0,2-.4,2.7-1.3.7-.9,1.1-2.5,1.1-4.8s-.3-3.4-.9-4.4c-.6-1.1-1.6-1.6-2.8-1.6-2.5,0-3.8,2-3.8,6.1s.3,3.5,1,4.5c.6,1,1.6,1.5,2.8,1.5Z"/>
      <path class="cls-5" d="M247.5,246.8h-3v-14.4l-4.5,14.4h-1.6l-4.6-14.4v14.4h-2.4v-16.4h4.6l3.4,10.6,3.4-10.6h4.7v16.4Z"/>
      <path class="cls-5" d="M262.8,230.4v10.5c0,1.4-.2,2.5-.5,3.3-.3.8-.9,1.4-1.9,2s-2,.8-3.4.8-2.4-.2-3.3-.7c-.9-.5-1.5-1.1-1.9-2-.4-.8-.6-1.9-.6-3.2v-10.8h3v10.5c0,1.4.3,2.4.9,2.8.6.5,1.3.7,2.1.7s1.7-.2,2.2-.7c.6-.5.8-1.4.8-2.8v-10.5h2.3Z"/>
      <path class="cls-5" d="M278.9,246.8h-2.9l-6.2-10.5c0-.2-.3-.4-.5-.8,0-.2-.2-.4-.4-.8v12h-2.4v-16.4h3.3l5.7,9.7c0,0,.4.7,1,1.8v-11.4h2.3v16.4Z"/>
      <path class="cls-5" d="M285.9,246.8h-3v-16.4h3v16.4Z"/>
      <path class="cls-5" d="M299.1,241.1l2.7.3c-.2,1.6-.8,3-1.9,4.1-1.1,1.1-2.5,1.6-4.3,1.6s-2.7-.4-3.6-1.1c-.9-.8-1.7-1.8-2.2-3.1s-.8-2.7-.8-4.3c0-2.5.6-4.5,1.8-6.1,1.2-1.6,2.8-2.3,4.9-2.3s3,.5,4.1,1.5c1.1,1,1.8,2.4,2,4.3l-2.7.3c-.5-2.5-1.6-3.7-3.3-3.7s-2,.5-2.6,1.5c-.6,1-.9,2.5-.9,4.5s.3,3.5,1,4.5c.7,1,1.5,1.5,2.6,1.5s1.6-.3,2.2-1c.6-.7,1-1.5,1-2.4Z"/>
      <path class="cls-5" d="M307.5,246.8h-3v-16.4h3v16.4Z"/>
      <path class="cls-5" d="M314.5,246.8h-3v-16.4h6.7c1.9,0,3.3.5,4.3,1.4.9,1,1.4,2.1,1.4,3.4s-.5,2.7-1.5,3.6c-1,.9-2.3,1.4-3.8,1.4h-4.1v6.5ZM314.5,237.8h3.5c.9,0,1.6-.2,2.1-.7.5-.4.7-1,.7-1.8s-.2-1.3-.7-1.7-1.2-.7-2.4-.7h-3.2v4.9Z"/>
      <path class="cls-5" d="M338.5,246.8h-3.2l-1.3-3.9h-6.3l-1.3,3.9h-2.5l5.4-16.4h3.6l5.5,16.4ZM333.2,240.5l-2.4-7.3-2.4,7.3h4.8Z"/>
      <path class="cls-5" d="M351,246.8h-10.1v-16.4h3.1v13.7h7v2.7Z"/>
    </g>
  </g>
  <rect class="cls-5" x="372.7" y="150.3" width="6.9" height="96.8"/>
  <g>
    <path class="cls-5" d="M416.9,207.7h-15.2v-23.3h15v3.5h-10.8v6.3h8.7v3.4h-8.7v6.5h11v3.6Z"/>
    <path class="cls-5" d="M430.2,201.4l3.3.3c-.4,2.2-1.3,3.8-2.5,4.8-1.2,1-2.7,1.6-4.5,1.6s-4.2-.9-5.5-2.6c-1.3-1.7-1.9-3.9-1.9-6.4s.7-4.7,2.1-6.4c1.4-1.7,3.3-2.5,5.6-2.5,3.8,0,6,2,6.7,5.9l-3.3.5c-.3-2.1-1.3-3.2-3.2-3.2s-2.3.6-2.9,1.7c-.6,1.2-.9,2.6-.9,4.2s.3,3.1.9,4c.6.9,1.5,1.4,2.6,1.4,1.7,0,2.8-1.1,3.4-3.3Z"/>
    <path class="cls-5" d="M443.3,208.1c-2.6,0-4.5-.9-5.8-2.8-1.3-1.8-2-3.9-2-6.3s.7-4.7,2.2-6.4c1.5-1.7,3.4-2.5,5.9-2.5s4.2.8,5.7,2.5c1.5,1.7,2.2,3.8,2.2,6.4s-.8,4.9-2.3,6.6c-1.5,1.7-3.5,2.5-5.9,2.5ZM443.5,204.9c2.6,0,3.9-2,3.9-5.9s-.3-3.2-.9-4.2c-.6-1-1.6-1.5-2.9-1.5s-2.3.5-3,1.6c-.6,1.1-1,2.5-1,4.2s.3,3.3,1,4.3c.7,1,1.6,1.5,2.8,1.5Z"/>
    <path class="cls-5" d="M469.4,207.7h-3.9v-10.8c0-1.1-.3-2-.8-2.6-.5-.6-1.2-.9-1.9-.9s-1.9.4-2.7,1.3c-.8.9-1.1,2.2-1.1,4v8.9h-3.9v-17.3h3.6v4c1.2-2.9,3-4.4,5.2-4.4s2.8.5,3.9,1.4c1.1,1,1.6,2.6,1.6,5v11.1Z"/>
    <path class="cls-5" d="M480.8,208.1c-2.6,0-4.5-.9-5.8-2.8-1.3-1.8-2-3.9-2-6.3s.7-4.7,2.2-6.4c1.5-1.7,3.4-2.5,5.9-2.5s4.2.8,5.7,2.5c1.5,1.7,2.2,3.8,2.2,6.4s-.8,4.9-2.3,6.6c-1.5,1.7-3.5,2.5-5.9,2.5ZM480.9,204.9c2.6,0,3.9-2,3.9-5.9s-.3-3.2-.9-4.2c-.6-1-1.6-1.5-2.9-1.5s-2.3.5-3,1.6c-.6,1.1-1,2.5-1,4.2s.3,3.3,1,4.3c.7,1,1.6,1.5,2.8,1.5Z"/>
    <path class="cls-5" d="M518.3,207.7h-4.1v-10.7c0-2.2-1-3.3-3-3.3s-2.1.4-2.8,1.3c-.7.8-1,2.1-1,3.8v9.1h-4.1v-10.7c0-2.3-.9-3.4-2.8-3.4s-2.1.5-2.8,1.4c-.8.9-1.2,2.2-1.2,3.7v9.1h-4v-17.3h3.8v3.7c1.2-2.7,3.1-4,5.8-4s4.2,1.3,5,4c1.4-2.7,3.3-4,5.8-4s3,.5,4,1.6c1,1,1.5,2.3,1.5,3.9v12.2Z"/>
    <path class="cls-5" d="M529.4,182.3l1.1,2.6-7.1,3-.7-1.8,6.7-3.7ZM526.9,207.7h-3.9v-17.3h3.9v17.3Z"/>
    <path class="cls-5" d="M546.3,207.7h-3.7c-.3-1-.5-2.2-.6-3.5-1,2.6-3,3.8-5.8,3.8s-3.1-.5-4.1-1.5c-1-1-1.6-2.3-1.6-3.8,0-4,3.5-5.9,10.4-5.9s.6,0,1.1,0v-1.3c0-1.8-1.2-2.7-3.7-2.7s-3.7.9-4,2.7l-3.3-.5c.2-1.4.9-2.6,2.2-3.5s3.2-1.4,5.6-1.4,2.4.1,3.3.3c.8.2,1.6.6,2.1,1.1.6.5,1,1.1,1.2,1.7.2.6.3,1.7.3,3.2v7.8c0,1.1.2,2.3.5,3.5ZM542,198.9c-5,0-7.6,1.2-7.6,3.6s.3,1.3.8,1.8,1.3.8,2.3.8c1.5,0,2.6-.5,3.4-1.4.8-.9,1.1-2,1.1-3.2v-1.6Z"/>
    <path class="cls-5" d="M572.1,190.5l-6.7,19.7c-.4,1.2-1,2.1-1.7,2.8-.7.7-1.7,1-3,1s-1.3,0-2.2-.1v-3.1h1.9c.8,0,1.4-.1,1.8-.4.4-.3.7-.7.9-1.4.2-.7.3-1.1.3-1.2s-.1-.4-.4-1.1l-5.9-16.2h4.1l4.2,11.4,3.6-11.4h3.1Z"/>
    <path class="cls-5" d="M424.6,243.7h-4.3v-20.4l-6.5,20.4h-2.2l-6.5-20.4v20.4h-3.4v-23.3h6.6l4.9,15,4.8-15h6.6v23.3Z"/>
    <path class="cls-5" d="M436.3,244.1c-2.6,0-4.5-.9-5.8-2.8-1.3-1.8-2-3.9-2-6.3s.7-4.7,2.2-6.4c1.5-1.7,3.4-2.5,5.9-2.5s4.2.8,5.7,2.5c1.5,1.7,2.2,3.8,2.2,6.4s-.8,4.9-2.3,6.6c-1.5,1.7-3.5,2.5-5.9,2.5ZM436.4,240.9c2.6,0,3.9-2,3.9-5.9s-.3-3.2-.9-4.2c-.6-1-1.6-1.5-2.9-1.5s-2.3.5-3,1.6c-.6,1.1-1,2.5-1,4.2s.3,3.3,1,4.3c.7,1,1.6,1.5,2.8,1.5Z"/>
    <path class="cls-5" d="M462.2,243.7h-3.6v-3.5c-1,2.6-2.7,3.8-5.1,3.8s-3.7-.9-4.9-2.6c-1.1-1.8-1.7-4-1.7-6.6s.6-4.6,1.8-6.4c1.2-1.8,2.8-2.7,5-2.7s3.8,1,4.6,3v-8.4h3.9v23.3ZM458.3,233.5c0-1.4-.3-2.5-1-3.3-.7-.8-1.5-1.2-2.6-1.2s-2.1.5-2.7,1.5c-.6,1-1,2.5-1,4.5,0,3.9,1.2,5.8,3.6,5.8s1.8-.4,2.5-1.2c.7-.8,1.1-1.9,1.1-3.2v-2.9Z"/>
    <path class="cls-5" d="M477.9,238.2l3.5.5c-.5,1.6-1.3,2.8-2.7,3.9-1.3,1-3,1.5-5,1.5s-4.3-.8-5.8-2.4c-1.5-1.6-2.2-3.8-2.2-6.5s.7-4.8,2.2-6.5c1.5-1.7,3.5-2.6,6-2.6s4.4.8,5.7,2.5c1.3,1.7,2,3.9,2,6.5v.4h-11.9c0,1.2.1,2.1.3,2.8.2.7.7,1.3,1.3,1.8.7.5,1.5.8,2.5.8,1.9,0,3.2-.9,3.9-2.8ZM477.6,233.1c0-1.2-.4-2.3-1.1-3-.7-.8-1.6-1.2-2.7-1.2s-2,.4-2.7,1.1c-.7.7-1.1,1.8-1.3,3.1h7.8Z"/>
    <path class="cls-5" d="M489.1,243.7h-3.9v-17.3h3.5v4.1c.5-1.6,1.2-2.8,2.1-3.5.9-.7,1.8-1.1,2.7-1.1s.3,0,.5,0v4.2c-2,0-3.3.6-3.9,1.9s-1,2.5-1,3.7v8Z"/>
    <path class="cls-5" d="M511.1,243.7h-3.9v-10.8c0-1.1-.3-2-.8-2.6-.5-.6-1.2-.9-1.9-.9s-1.9.4-2.7,1.3c-.8.9-1.1,2.2-1.1,4v8.9h-3.9v-17.3h3.6v4c1.2-2.9,3-4.4,5.2-4.4s2.8.5,3.9,1.4c1.1,1,1.6,2.6,1.6,5v11.1Z"/>
    <path class="cls-5" d="M519.7,224.4h-3.9v-4.1h3.9v4.1ZM519.7,243.7h-3.9v-17.3h3.9v17.3Z"/>
    <path class="cls-5" d="M535.9,240.7v3h-13v-3l8.3-11.2h-7.5v-3h12.2v2.8l-8.5,11.5h8.5Z"/>
    <path class="cls-5" d="M553.8,243.7h-3.7c-.3-1-.5-2.2-.6-3.5-1,2.6-3,3.8-5.8,3.8s-3.1-.5-4.1-1.5c-1-1-1.6-2.3-1.6-3.8,0-4,3.5-5.9,10.4-5.9s.6,0,1.1,0v-1.3c0-1.8-1.2-2.7-3.7-2.7s-3.7.9-4,2.7l-3.3-.5c.2-1.4.9-2.6,2.2-3.5s3.2-1.4,5.6-1.4,2.4.1,3.3.3c.8.2,1.6.6,2.1,1.1.6.5,1,1.1,1.2,1.7.2.6.3,1.7.3,3.2v7.8c0,1.1.2,2.3.5,3.5ZM549.5,234.9c-5,0-7.6,1.2-7.6,3.6s.3,1.3.8,1.8,1.3.8,2.3.8c1.5,0,2.6-.5,3.4-1.4.8-.9,1.1-2,1.1-3.2v-1.6Z"/>
    <path class="cls-5" d="M567.9,237.4l3.3.3c-.4,2.2-1.3,3.8-2.5,4.8-1.2,1-2.7,1.6-4.5,1.6s-4.2-.9-5.5-2.6c-1.3-1.7-1.9-3.9-1.9-6.4s.7-4.7,2.1-6.4c1.4-1.7,3.3-2.5,5.6-2.5,3.8,0,6,2,6.7,5.9l-3.3.5c-.3-2.1-1.3-3.2-3.2-3.2s-2.3.6-2.9,1.7c-.6,1.2-.9,2.6-.9,4.2s.3,3.1.9,4c.6.9,1.5,1.4,2.6,1.4,1.7,0,2.8-1.1,3.4-3.3Z"/>
    <path class="cls-5" d="M578.1,224.4h-3.9v-4.1h3.9v4.1ZM578.1,243.7h-3.9v-17.3h3.9v17.3Z"/>
    <path class="cls-5" d="M589.5,244.1c-2.6,0-4.5-.9-5.8-2.8-1.3-1.8-2-3.9-2-6.3s.7-4.7,2.2-6.4c1.5-1.7,3.4-2.5,5.9-2.5s4.2.8,5.7,2.5c1.5,1.7,2.2,3.8,2.2,6.4s-.8,4.9-2.3,6.6c-1.5,1.7-3.5,2.5-5.9,2.5ZM589.7,240.9c2.6,0,3.9-2,3.9-5.9s-.3-3.2-.9-4.2c-.6-1-1.6-1.5-2.9-1.5s-2.3.5-3,1.6c-.6,1.1-1,2.5-1,4.2s.3,3.3,1,4.3c.7,1,1.6,1.5,2.8,1.5ZM593.9,218.3l1.1,2.6-7.1,3-.7-1.8,6.7-3.7Z"/>
    <path class="cls-5" d="M615.6,243.7h-3.9v-10.8c0-1.1-.3-2-.8-2.6-.5-.6-1.2-.9-1.9-.9s-1.9.4-2.7,1.3c-.8.9-1.1,2.2-1.1,4v8.9h-3.9v-17.3h3.6v4c1.2-2.9,3-4.4,5.2-4.4s2.8.5,3.9,1.4c1.1,1,1.6,2.6,1.6,5v11.1Z"/>
  </g>
</svg>